<svg width="18" height="17" viewBox="0 0 18 17" fill="none" xmlns="http://www.w3.org/2000/svg">
<g id="Group 1000005991">
<path id="Vector" d="M6.40625 16.3469C7.09661 16.3469 7.65625 15.7873 7.65625 15.0969C7.65625 14.4066 7.09661 13.8469 6.40625 13.8469C5.71589 13.8469 5.15625 14.4066 5.15625 15.0969C5.15625 15.7873 5.71589 16.3469 6.40625 16.3469Z" fill="#014B40"/>
<path id="Vector_2" d="M14 16.3469C14.6904 16.3469 15.25 15.7873 15.25 15.0969C15.25 14.4066 14.6904 13.8469 14 13.8469C13.3096 13.8469 12.75 14.4066 12.75 15.0969C12.75 15.7873 13.3096 16.3469 14 16.3469Z" fill="#014B40"/>
<path id="Vector_3" d="M17.3774 1.55239C17.3257 1.48866 17.2605 1.43718 17.1866 1.40163C17.1126 1.36609 17.0317 1.34738 16.9496 1.34684H5.38295L5.74406 2.45795H16.2218L14.7385 9.12461H6.40517L3.86628 1.08572C3.83882 1.00042 3.79113 0.923032 3.72728 0.860152C3.66343 0.797272 3.58532 0.75077 3.49961 0.724613L1.22184 0.0246129C1.1518 0.00309072 1.07821 -0.00442562 1.00526 0.00249297C0.93232 0.00941157 0.861453 0.0306296 0.79671 0.0649357C0.665956 0.13422 0.56808 0.252609 0.524614 0.394057C0.481148 0.535506 0.495652 0.688429 0.564937 0.819183C0.634221 0.949938 0.75261 1.04781 0.894058 1.09128L2.8885 1.70239L5.4385 9.75795L4.52739 10.5024L4.45517 10.5746C4.2298 10.8343 4.10206 11.1645 4.09395 11.5083C4.08583 11.852 4.19786 12.1879 4.41073 12.4579C4.56215 12.6421 4.75456 12.7882 4.97258 12.8847C5.1906 12.9812 5.42817 13.0253 5.66628 13.0135H14.9385C15.0858 13.0135 15.2272 12.955 15.3313 12.8508C15.4355 12.7466 15.4941 12.6053 15.4941 12.4579C15.4941 12.3106 15.4355 12.1693 15.3313 12.0651C15.2272 11.9609 15.0858 11.9024 14.9385 11.9024H5.57739C5.51342 11.9002 5.45109 11.8816 5.39642 11.8483C5.34176 11.8149 5.29661 11.7681 5.26533 11.7123C5.23406 11.6564 5.21771 11.5934 5.21788 11.5294C5.21804 11.4654 5.23472 11.4025 5.26628 11.3468L6.60517 10.2357H15.1829C15.3114 10.2389 15.4369 10.1974 15.5382 10.1184C15.6395 10.0394 15.7103 9.92771 15.7385 9.80239L17.4996 2.02461C17.5165 1.94179 17.5143 1.8562 17.4931 1.77437C17.4719 1.69254 17.4323 1.61662 17.3774 1.55239Z" fill="#014B40"/>
</g>
</svg>
