<svg width="16" height="17" viewBox="0 0 16 17" fill="none" xmlns="http://www.w3.org/2000/svg">
<g id="Group 1000005990">
<path id="Vector" d="M7.99826 7.77778C8.76741 7.77778 9.51929 7.5497 10.1588 7.12238C10.7983 6.69507 11.2968 6.08771 11.5911 5.3771C11.8855 4.6665 11.9625 3.88458 11.8124 3.13021C11.6624 2.37584 11.292 1.6829 10.7481 1.13903C10.2043 0.59516 9.51132 0.224779 8.75695 0.0747257C8.00258 -0.075328 7.22065 0.00168499 6.51005 0.296026C5.79945 0.590367 5.19209 1.08882 4.76477 1.72834C4.33745 2.36786 4.10938 3.11974 4.10938 3.88889C4.10938 4.92029 4.5191 5.90944 5.2484 6.63875C5.97771 7.36806 6.96687 7.77778 7.99826 7.77778ZM7.99826 1.11111C8.54766 1.11111 9.08471 1.27403 9.54151 1.57925C9.99832 1.88448 10.3544 2.31831 10.5646 2.82588C10.7748 3.33345 10.8298 3.89197 10.7227 4.43081C10.6155 4.96964 10.3509 5.4646 9.96245 5.85308C9.57397 6.24155 9.07902 6.50611 8.54018 6.61329C8.00135 6.72048 7.44283 6.66547 6.93525 6.45522C6.42768 6.24498 5.99385 5.88894 5.68863 5.43214C5.3834 4.97534 5.22049 4.43828 5.22049 3.88889C5.22049 3.15218 5.51314 2.44564 6.03408 1.92471C6.55501 1.40377 7.26155 1.11111 7.99826 1.11111Z" fill="#014B40"/>
<path id="Vector_2" d="M14.9313 11.8722C14.0403 10.9305 12.9667 10.1805 11.776 9.66786C10.5853 9.15525 9.30259 8.89087 8.00625 8.89087C6.70991 8.89087 5.42719 9.15525 4.23651 9.66786C3.04582 10.1805 1.97219 10.9305 1.08125 11.8722C0.888092 12.0785 0.780813 12.3507 0.781251 12.6333V15.5555C0.781251 15.8502 0.898314 16.1328 1.10669 16.3412C1.31506 16.5496 1.59768 16.6666 1.89236 16.6666H14.1146C14.4093 16.6666 14.6919 16.5496 14.9003 16.3412C15.1086 16.1328 15.2257 15.8502 15.2257 15.5555V12.6333C15.2276 12.3514 15.1224 12.0794 14.9313 11.8722ZM14.1146 15.5555H1.89236V12.6277C2.67971 11.7987 3.62752 11.1385 4.67812 10.6874C5.72871 10.2362 6.86011 10.0036 8.00347 10.0036C9.14683 10.0036 10.2782 10.2362 11.3288 10.6874C12.3794 11.1385 13.3272 11.7987 14.1146 12.6277V15.5555Z" fill="#014B40"/>
</g>
</svg>
