<svg width="19" height="18" viewBox="0 0 19 18" fill="none" xmlns="http://www.w3.org/2000/svg">
<g id="Group 1000005989">
<path id="Vector" d="M8.07379 1.13889C9.27719 1.13779 10.4539 1.49364 11.455 2.16141C12.4561 2.82919 13.2367 3.77889 13.698 4.89038C14.1593 6.00187 14.2806 7.22519 14.0465 8.40561C13.8124 9.58603 13.2334 10.6705 12.3829 11.5218C11.5323 12.3731 10.4484 12.9531 9.26819 13.1883C8.08798 13.4234 6.86454 13.3033 5.75264 12.843C4.64073 12.3827 3.69031 11.603 3.02162 10.6025C2.35293 9.602 1.99601 8.42563 1.99601 7.22222C2.00331 5.61203 2.64581 4.06978 3.78388 2.93068C4.92195 1.79157 6.4636 1.14766 8.07379 1.13889ZM8.07379 0C6.64537 0 5.24902 0.423576 4.06134 1.21716C2.87365 2.01075 1.94796 3.13871 1.40132 4.4584C0.854692 5.77809 0.711668 7.23023 0.990339 8.63121C1.26901 10.0322 1.95686 11.3191 2.96691 12.3291C3.97695 13.3391 5.26383 14.027 6.6648 14.3057C8.06578 14.5843 9.51792 14.4413 10.8376 13.8947C12.1573 13.3481 13.2853 12.4224 14.0788 11.2347C14.8724 10.047 15.296 8.65064 15.296 7.22222C15.296 5.30677 14.5351 3.46977 13.1807 2.11534C11.8262 0.76091 9.98924 0 8.07379 0Z" fill="#014B40"/>
<path id="Vector_2" d="M18.4458 16.8278L14.3514 12.7056L13.5625 13.4889L17.6569 17.6111C17.7084 17.6629 17.7695 17.7041 17.8369 17.7323C17.9042 17.7604 17.9764 17.7751 18.0494 17.7753C18.1224 17.7756 18.1948 17.7615 18.2623 17.7338C18.3298 17.7061 18.3913 17.6653 18.4431 17.6139C18.4949 17.5625 18.536 17.5013 18.5642 17.434C18.5924 17.3666 18.607 17.2944 18.6073 17.2214C18.6075 17.1484 18.5934 17.0761 18.5657 17.0086C18.538 16.941 18.4973 16.8796 18.4458 16.8278Z" fill="#014B40"/>
</g>
</svg>
