<svg width="18" height="17" viewBox="0 0 18 17" fill="none" xmlns="http://www.w3.org/2000/svg">
<path id="Vector" d="M13.865 16.8934C13.6968 16.893 13.5292 16.8745 13.365 16.8384C10.2383 16.1916 7.3578 14.6751 5.05499 12.4634C2.80132 10.2469 1.23829 7.42474 0.55499 4.33844C0.474421 3.9538 0.494196 3.55489 0.612412 3.1801C0.730629 2.80531 0.943309 2.46725 1.22999 2.19844L3.22999 0.273442C3.33214 0.176836 3.45352 0.102857 3.5862 0.056333C3.71888 0.00980932 3.85987 -0.00821314 3.99999 0.00344183C4.14527 0.0185983 4.28547 0.0653985 4.41072 0.140551C4.53598 0.215704 4.64325 0.317384 4.72499 0.438442L7.22499 4.13344C7.31874 4.27681 7.364 4.44649 7.3541 4.61751C7.34419 4.78853 7.27966 4.95185 7.16999 5.08344L5.91499 6.58344C6.41482 7.68967 7.12266 8.68948 7.99999 9.52844C8.87164 10.3978 9.90191 11.092 11.035 11.5734L12.59 10.3384C12.7206 10.2352 12.8795 10.1742 13.0456 10.1635C13.2118 10.1528 13.3772 10.1929 13.52 10.2784L17.295 12.7184C17.4245 12.7958 17.5349 12.9015 17.6178 13.0275C17.7007 13.1536 17.754 13.2968 17.7738 13.4463C17.7935 13.5959 17.7791 13.748 17.7317 13.8913C17.6843 14.0345 17.6051 14.1652 17.5 14.2734L15.55 16.2034C15.3285 16.4239 15.0656 16.5983 14.7764 16.7167C14.4872 16.8351 14.1775 16.8952 13.865 16.8934ZM3.91999 0.993442L1.91999 2.91844C1.75872 3.06872 1.63933 3.25838 1.57358 3.46878C1.50783 3.67918 1.49798 3.90308 1.54499 4.11844C2.18035 7.01451 3.64085 9.66459 5.74999 11.7484C7.91709 13.8292 10.6278 15.2556 13.57 15.8634C13.7927 15.91 14.0235 15.9006 14.2416 15.836C14.4598 15.7714 14.6585 15.6537 14.82 15.4934L16.77 13.5634L13.125 11.2084L11.455 12.5384C11.3911 12.589 11.3157 12.6232 11.2355 12.6381C11.1554 12.6529 11.0728 12.6479 10.995 12.6234C9.60834 12.1125 8.35172 11.3015 7.31499 10.2484C6.24267 9.24705 5.4103 8.01645 4.87999 6.64844C4.85755 6.56562 4.85681 6.47843 4.87783 6.39524C4.89884 6.31205 4.94091 6.23567 4.99999 6.17344L6.34999 4.55844L3.91999 0.993442Z" fill="white"/>
</svg>
