<svg width="50" height="50" viewBox="0 0 50 50" fill="none" xmlns="http://www.w3.org/2000/svg">
<g id="Group 1000005856">
<circle id="Ellipse 157" opacity="0.1" cx="25" cy="25" r="25" fill="white"/>
<path id="Vector" d="M34.2812 21.3672C33.3094 20.6008 32.5039 19.9855 27.8633 16.6172C27.2148 16.141 25.9258 15 25.0156 15H24.9844C24.0742 15 22.7852 16.141 22.1328 16.6164C17.4922 19.9855 16.6875 20.5656 15.7148 21.3664C15.2637 21.7187 15 22.2656 15 22.8438V33.125C15 34.1602 15.8395 35 16.875 35H33.125C34.1605 35 35 34.1605 35 33.1602V22.8438C35 22.2656 34.7383 21.7188 34.2812 21.3672ZM26.8438 29.3555C26.293 29.7852 25.6445 30 25 30C24.3555 30 23.7086 29.7858 23.1578 29.3566L17.5 24.957V23.1445C18.3266 22.4965 19.3156 21.7516 23.6094 18.6328C23.7336 18.5419 23.8786 18.4302 24.0383 18.3065C24.2539 18.1422 24.6797 17.8113 25 17.6109C25.3206 17.8114 25.7477 18.1422 25.9613 18.3078C26.1211 18.4315 26.2661 18.5432 26.3969 18.639C30.6602 21.7383 31.6641 22.4883 32.5 23.1445V24.9539L26.8438 29.3555Z" fill="white"/>
</g>
</svg>
