<svg width="50" height="50" viewBox="0 0 50 50" fill="none" xmlns="http://www.w3.org/2000/svg">
<g id="Group 1000005855">
<circle id="Ellipse 157" opacity="0.1" cx="25" cy="25" r="25" fill="white"/>
<path id="Vector" d="M23.5913 34.5506C21.5469 32.0363 17 25.9424 17 22.5195C17 18.3665 20.3665 15 24.5195 15C28.6708 15 32.0389 18.3665 32.0389 22.5195C32.0389 25.9424 27.4567 32.0363 25.4476 34.5506C24.9659 35.1498 24.073 35.1498 23.5913 34.5506ZM24.5195 25.0259C25.9019 25.0259 27.0259 23.9019 27.0259 22.5195C27.0259 21.137 25.9019 20.013 24.5195 20.013C23.137 20.013 22.013 21.137 22.013 22.5195C22.013 23.9019 23.137 25.0259 24.5195 25.0259Z" fill="white"/>
</g>
</svg>
