<svg width="50" height="50" viewBox="0 0 50 50" fill="none" xmlns="http://www.w3.org/2000/svg">
<g id="Group 1000005853">
<circle id="Ellipse 157" opacity="0.1" cx="25" cy="25" r="25" fill="white"/>
<path id="Vector" d="M15.7389 28.7163L19.9771 26.8991C20.4763 26.6831 21.0618 26.8288 21.4008 27.2499L23.123 29.3522C25.828 28.0241 28.0252 25.8246 29.3533 23.1219L27.2514 21.4017C26.8315 21.0587 26.6885 20.4763 26.9009 19.9771L28.7176 15.739C28.9556 15.1957 29.5418 14.8984 30.1156 15.0316L34.0529 15.9398C34.6095 16.0667 34.999 16.557 34.999 17.1296C34.999 26.9847 26.9837 35 17.1286 35C16.5556 35 16.0669 34.6106 15.9392 34.0539L15.031 30.1166C14.8995 29.5444 15.1959 28.9506 15.7389 28.7163Z" fill="white"/>
</g>
</svg>
