<svg width="120" height="46" viewBox="0 0 120 46" fill="none" xmlns="http://www.w3.org/2000/svg">
<path d="M11.18 19.7937C12.48 19.7937 13.6413 19.941 14.664 20.2357C15.704 20.513 16.5793 20.929 17.29 21.4837C18.0007 22.021 18.5467 22.6883 18.928 23.4857C19.3093 24.2657 19.5 25.1583 19.5 26.1637C19.5 27.169 19.3093 28.0703 18.928 28.8677C18.5467 29.6477 18.0007 30.315 17.29 30.8697C16.5793 31.407 15.704 31.823 14.664 32.1177C13.6413 32.395 12.48 32.5337 11.18 32.5337H5.59V37.9937H1.82V19.7937H11.18ZM5.59 21.7437V30.5837H11.18C12.5493 30.5837 13.6067 30.2283 14.352 29.5177C15.1147 28.7897 15.496 27.6717 15.496 26.1637C15.496 24.6557 15.1147 23.5463 14.352 22.8357C13.6067 22.1077 12.5493 21.7437 11.18 21.7437H5.59ZM26.001 37.9937H22.361V19.7937H26.001V37.9937ZM32.6381 33.7037C32.6381 35.3503 33.6348 36.1737 35.6281 36.1737H39.2681V31.2337H35.6281C33.6348 31.2337 32.6381 32.057 32.6381 33.7037ZM39.2681 29.4137C39.2681 28.1657 38.9388 27.247 38.2801 26.6577C37.6388 26.0683 36.7981 25.7737 35.7581 25.7737C34.9781 25.7737 34.2155 25.895 33.4701 26.1377C32.7248 26.363 32.0575 26.675 31.4681 27.0737L30.5581 25.5137C30.9395 25.2537 31.3555 25.0283 31.8061 24.8377C32.2741 24.647 32.7508 24.491 33.2361 24.3697C33.7215 24.231 34.1981 24.127 34.6661 24.0577C35.1515 23.9883 35.6021 23.9537 36.0181 23.9537C37.1275 23.9537 38.1068 24.0837 38.9561 24.3437C39.8055 24.6037 40.5248 24.9763 41.1141 25.4617C41.7035 25.947 42.1455 26.5277 42.4401 27.2037C42.7521 27.8623 42.9081 28.599 42.9081 29.4137V37.9937H35.6281C33.2708 37.9937 31.5288 37.6383 30.4021 36.9277C29.2928 36.217 28.7381 35.1423 28.7381 33.7037C28.7381 32.265 29.2928 31.1903 30.4021 30.4797C31.5288 29.769 33.2708 29.4137 35.6281 29.4137H39.2681ZM60.7059 37.9937H57.0659V29.8037C57.0659 28.5557 56.7539 27.663 56.1299 27.1257C55.5059 26.571 54.6046 26.2937 53.4259 26.2937H50.0459V37.9937H46.4059V24.4737H53.4259C55.9046 24.4737 57.7333 24.9243 58.9119 25.8257C60.1079 26.7097 60.7059 28.0357 60.7059 29.8037V37.9937ZM64.867 26.2937H62.397V24.4737H64.867V20.3137H68.507V24.4737H72.537V26.2937H68.507V33.0537C68.507 33.7123 68.5763 34.2757 68.715 34.7437C68.871 35.1943 69.0703 35.567 69.313 35.8617C69.573 36.139 69.8676 36.347 70.197 36.4857C70.5263 36.6243 70.873 36.6937 71.237 36.6937C71.757 36.6937 72.2596 36.6157 72.745 36.4597C73.2303 36.2863 73.6376 36.1043 73.967 35.9137L74.747 37.6037C74.227 37.8637 73.629 38.0803 72.953 38.2537C72.2943 38.427 71.6356 38.5137 70.977 38.5137C69.0183 38.5137 67.5103 38.0283 66.453 37.0577C65.3956 36.087 64.867 34.7523 64.867 33.0537V26.2937ZM87.4839 37.4737H84.1039C81.6252 37.4737 79.7879 37.0317 78.5919 36.1477C77.4132 35.2463 76.8239 33.9117 76.8239 32.1437V24.4737H80.4639V32.1437C80.4639 33.3917 80.7759 34.293 81.3999 34.8477C82.0239 35.385 82.9252 35.6537 84.1039 35.6537H87.4839V24.4737H91.1239V37.7337C91.1239 38.5483 90.9679 39.285 90.6559 39.9437C90.3439 40.6197 89.8759 41.2003 89.2519 41.6857C88.6452 42.171 87.8739 42.5437 86.9379 42.8037C86.0192 43.0637 84.9446 43.1937 83.7139 43.1937C83.2979 43.1937 82.8472 43.159 82.3619 43.0897C81.8939 43.0377 81.4172 42.9423 80.9319 42.8037C80.4466 42.6823 79.9699 42.5177 79.5019 42.3097C79.0512 42.119 78.6352 41.8937 78.2539 41.6337L79.2939 40.0737C79.8832 40.4723 80.5419 40.7843 81.2699 41.0097C81.9979 41.2523 82.7259 41.3737 83.4539 41.3737C84.7539 41.3737 85.7506 41.079 86.4439 40.4897C87.1372 39.9003 87.4839 38.9817 87.4839 37.7337V37.4737Z" fill="white"/>
<path d="M98.6114 30.9854C97.3114 31.3854 95.9114 31.6854 94.6114 32.0854C96.2114 28.7854 98.8114 26.6854 102.311 25.5854C104.211 24.9854 105.911 23.9854 107.711 22.9854C108.511 22.5854 109.311 22.0854 108.911 20.4854C106.711 21.5854 104.611 22.5854 102.511 23.5854C102.411 23.3854 102.211 23.2854 102.111 23.0854C102.911 22.0854 103.611 21.0854 104.411 20.0854C106.111 17.9854 107.811 15.9854 109.511 13.9854C109.811 13.5854 109.911 12.9855 109.911 12.2855C106.211 14.8855 103.811 18.7855 100.111 22.2855C100.311 20.2855 100.611 18.8854 100.611 17.4854C100.611 16.2854 101.911 14.7854 99.9114 13.4854C99.6114 14.2854 99.3114 14.9854 99.1114 15.5854C98.7114 18.0854 98.4114 20.4854 98.0114 22.9854C97.9114 23.6854 97.8114 24.3854 97.5114 24.8854C95.8114 27.2854 94.1114 29.6854 92.0114 32.3854C92.0114 30.4854 92.1114 29.1854 92.0114 27.8854C91.9114 26.7854 92.4755 24.6459 91.1114 24.4854C89.6623 24.315 90.2114 26.8854 90.1114 28.0854C90.0114 30.4854 89.7114 32.8855 89.6114 35.2855C89.5114 36.1855 89.2114 36.8854 88.2114 36.9854C88.0114 33.0854 87.3856 28.3854 87.4856 24.4854C87.4856 22.1854 88.4983 18.4937 88.4983 18.4937C88.4983 18.4937 89.0983 16.7937 89.4983 16.4937C90.0983 15.8937 90.6292 15.7669 91.4983 15.9937C92.36 16.2185 92.8114 16.6854 93.0114 17.3854C93.4114 18.8854 93.6114 20.3854 94.0114 22.5854C94.5114 20.9854 94.8114 19.8854 95.2114 18.8854C96.5114 15.4854 97.7114 11.9854 99.2114 8.68545C99.8114 7.38545 100.811 6.18544 101.911 5.08544C103.211 3.88544 104.411 4.28544 104.811 5.98544C105.011 6.88544 104.911 7.78545 104.911 8.68545C104.911 9.48545 104.711 10.2854 104.611 11.1854C104.611 11.2854 104.711 11.4855 104.911 11.7855C106.711 9.68546 108.311 7.48544 110.211 5.48544C112.011 3.68544 114.111 2.08544 116.111 0.585443C116.911 -0.0145571 117.911 -0.314563 118.811 0.485437C119.811 1.38544 119.411 2.48544 118.911 3.48544C118.311 4.68544 117.611 5.78543 116.811 6.88543C114.611 10.0854 112.311 13.2855 109.911 16.7855C110.611 16.6855 111.111 16.5854 111.511 16.4854C113.311 16.0854 115.011 15.4854 116.811 15.3854C118.411 15.2854 119.111 16.3854 118.311 17.8854C117.711 18.8854 116.811 19.7854 115.811 20.5854C114.311 21.6854 112.611 22.5854 111.111 23.9854C112.311 23.9854 113.511 23.8854 114.711 23.9854C117.711 24.1854 118.211 25.0854 116.711 27.6854C116.611 27.7854 116.611 27.9854 116.611 28.1854C111.511 28.6854 107.011 30.9855 102.111 32.2855C101.511 32.4855 100.811 32.5854 100.211 32.6854C100.011 32.4854 99.8114 32.2854 99.6114 32.0854C100.311 31.6854 101.311 31.5855 101.511 30.2855C100.311 29.9855 99.3114 29.8854 98.6114 30.9854Z" fill="white"/>
</svg>
